<svg width="230" height="77" viewBox="0 0 230 77" fill="none" xmlns="http://www.w3.org/2000/svg">
<path d="M168.877 54.0983C168.523 54.1204 168.092 54.3525 167.584 54.7945C167.075 55.2144 166.523 55.7668 165.926 56.4519C165.352 57.1149 164.744 57.8553 164.103 58.6729C163.484 59.4906 162.876 60.3083 162.28 61.126C161.705 61.9216 161.164 62.673 160.655 63.3801C160.147 64.0873 159.716 64.6509 159.363 65.0708C158.876 64.8719 158.457 64.5846 158.103 64.2089C157.749 63.8111 157.495 63.3249 157.341 62.7503C157.451 62.0652 157.606 61.358 157.805 60.6287C158.004 59.8774 158.258 59.1039 158.567 58.3083C158.899 57.5127 159.296 56.684 159.76 55.8221C160.247 54.9381 160.832 54.0099 161.517 53.0375C161.186 53.0596 160.733 53.3027 160.158 53.7668C159.584 54.2088 158.965 54.7945 158.302 55.5237C157.639 56.2309 156.954 57.0376 156.247 57.9437C155.539 58.8276 154.876 59.7006 154.258 60.5624C153.44 61.7116 152.755 62.7172 152.202 63.579C151.672 64.4409 151.285 64.9492 151.042 65.1039C150.468 64.684 150.07 64.231 149.849 63.7448C149.628 63.2586 149.462 62.7171 149.352 62.1205C149.374 61.5901 149.451 60.9271 149.584 60.1315C149.738 59.3359 149.948 58.5182 150.213 57.6785C150.722 56.0652 151.374 54.463 152.169 52.8718C152.987 51.2806 153.771 49.8221 154.523 48.4961C155.142 48.6287 155.694 48.8386 156.18 49.1259C156.689 49.4132 157.219 49.8331 157.772 50.3856C157.551 51.0707 157.208 51.8 156.744 52.5735C156.28 53.3248 155.794 54.1204 155.285 54.9602C154.777 55.8 154.313 56.6619 153.893 57.5459C153.473 58.4298 153.197 59.3249 153.064 60.231C153.683 59.347 154.412 58.3304 155.252 57.1812C156.114 56.032 156.987 54.9492 157.871 53.9326C158.777 52.916 159.672 52.0541 160.556 51.3469C161.44 50.6398 162.236 50.2862 162.943 50.2862C163.208 50.2862 163.495 50.3304 163.805 50.4188C164.114 50.5072 164.401 50.6177 164.667 50.7502C164.932 50.8828 165.153 51.0154 165.33 51.148C165.506 51.2585 165.606 51.3469 165.628 51.4132C165.517 51.8552 165.252 52.463 164.832 53.2364C164.435 53.9878 164.004 54.7834 163.539 55.6232C163.075 56.463 162.644 57.2807 162.247 58.0762C161.849 58.8497 161.617 59.4685 161.551 59.9326C162.633 58.4519 163.65 57.1149 164.6 55.9215C165.551 54.7061 166.446 53.6674 167.285 52.8055C168.125 51.9436 168.899 51.2806 169.606 50.8165C170.335 50.3525 171.02 50.1204 171.661 50.1204C172.103 50.1204 172.512 50.242 172.888 50.4851C173.285 50.706 173.562 51.0375 173.716 51.4795C173.517 52.1425 173.186 52.9381 172.722 53.8663C172.28 54.7945 171.827 55.7779 171.363 56.8166C170.899 57.8332 170.479 58.8387 170.103 59.8332C169.749 60.8276 169.573 61.7227 169.573 62.5183C169.573 62.9824 169.639 63.2917 169.772 63.4464C169.904 63.579 170.092 63.6453 170.335 63.6453C170.6 63.6453 170.843 63.6011 171.064 63.5127C171.307 63.4022 171.484 63.347 171.595 63.347C171.727 63.4354 171.805 63.5459 171.827 63.6785C171.849 63.8111 171.86 63.9326 171.86 64.0431C171.418 64.3967 170.965 64.684 170.501 64.905C170.037 65.1481 169.517 65.2697 168.943 65.2697C168.412 65.2697 167.97 65.1813 167.617 65.0045C167.285 64.8277 167.009 64.5846 166.788 64.2752C166.567 63.9658 166.412 63.6122 166.324 63.2144C166.236 62.8166 166.191 62.3857 166.191 61.9216C166.191 61.1702 166.291 60.4298 166.49 59.7006C166.689 58.9492 166.921 58.242 167.186 57.579C167.473 56.8939 167.772 56.2641 168.081 55.6895C168.39 55.0928 168.656 54.5624 168.877 54.0983Z" fill="black"/>
<path d="M145.582 50.8828C145.803 50.8828 146.057 50.927 146.345 51.0154C146.654 51.0817 146.93 51.1812 147.173 51.3138C147.417 51.4243 147.615 51.5458 147.77 51.6784C147.947 51.811 148.035 51.9326 148.035 52.0431C147.593 52.9712 147.184 53.9105 146.809 54.8608C146.433 55.7889 146.113 56.684 145.847 57.5459C145.582 58.4077 145.372 59.2144 145.218 59.9658C145.085 60.7171 145.019 61.3691 145.019 61.9216C145.019 62.5403 145.085 63.0597 145.218 63.4796C145.35 63.8774 145.571 64.1647 145.881 64.3415C145.615 64.5183 145.273 64.6619 144.853 64.7724C144.433 64.8829 144.057 64.9381 143.726 64.9381C142.532 64.9381 141.936 64.1205 141.936 62.4851C141.936 61.2254 142.356 59.5017 143.195 57.3138C142.754 58.3304 142.245 59.2917 141.671 60.1978C141.096 61.0818 140.51 61.8663 139.914 62.5514C139.317 63.2365 138.709 63.8 138.09 64.242C137.494 64.6619 136.941 64.916 136.433 65.0044C135.615 64.9602 134.952 64.5735 134.444 63.8442C133.936 63.0928 133.682 62.1426 133.682 60.9934C133.682 59.7558 133.947 58.4519 134.477 57.0818C135.008 55.7116 135.682 54.4409 136.499 53.2696C137.339 52.0983 138.245 51.1259 139.218 50.3525C140.19 49.5569 141.129 49.137 142.035 49.0928C142.256 49.1591 142.499 49.2917 142.765 49.4906C143.052 49.6895 143.317 49.9215 143.56 50.1867C143.825 50.4519 144.046 50.7281 144.223 51.0154C144.4 51.2806 144.499 51.5127 144.521 51.7116C143.637 51.8442 142.72 52.2751 141.77 53.0044C140.842 53.7337 139.991 54.6177 139.218 55.6563C138.466 56.6729 137.847 57.7668 137.361 58.9381C136.875 60.1094 136.632 61.2033 136.632 62.2199C136.632 62.6398 136.787 62.905 137.096 63.0155C137.737 62.8829 138.477 62.3414 139.317 61.3912C140.157 60.4188 141.173 58.9271 142.367 56.916C142.588 56.5182 142.831 56.0762 143.096 55.59C143.383 55.1039 143.671 54.5956 143.958 54.0652C144.245 53.5348 144.521 53.0044 144.787 52.474C145.074 51.9215 145.339 51.3911 145.582 50.8828Z" fill="black"/>
<path d="M119.98 63.6129C120.091 62.9721 120.279 62.1323 120.544 61.0936C120.831 60.0328 121.163 58.9168 121.538 57.7455C121.914 56.5521 122.312 55.3588 122.732 54.1654C123.152 52.972 123.561 51.9002 123.958 50.9499C124.246 50.2648 124.5 49.7344 124.721 49.3587C124.942 48.9609 125.185 48.6295 125.45 48.3643C125.759 48.4085 126.08 48.4858 126.411 48.5963C126.743 48.7068 127.063 48.8394 127.373 48.9941C127.682 49.1488 127.958 49.3145 128.201 49.4913C128.445 49.646 128.632 49.8007 128.765 49.9554C128.168 50.6626 127.638 51.4692 127.174 52.3753C126.732 53.2814 126.279 54.4416 125.815 55.856C127.008 54.7952 128.058 53.7786 128.964 52.8063C129.892 51.8339 130.754 50.751 131.55 49.5576C131.682 49.4471 131.914 49.3919 132.246 49.3919C132.555 49.3919 132.853 49.4471 133.141 49.5576C133.428 49.646 133.627 49.7786 133.737 49.9554C133.34 51.0162 133.141 52.0659 133.141 53.1046C133.141 54.077 133.284 54.8063 133.572 55.2925C133.55 55.4251 133.395 55.6792 133.108 56.0549C132.842 56.4306 132.544 56.7842 132.213 57.1157C131.616 56.8063 131.085 56.3864 130.621 55.856C130.157 55.3035 129.815 54.7068 129.594 54.0659C128.555 54.7952 127.671 55.5135 126.942 56.2206C126.213 56.9057 125.583 57.6792 125.052 58.5411C124.544 59.3809 124.102 60.3533 123.726 61.4582C123.373 62.5632 123.03 63.8781 122.699 65.403C122.5 65.3809 122.257 65.3036 121.969 65.171C121.704 65.0605 121.428 64.9168 121.141 64.74C120.875 64.5632 120.632 64.3754 120.411 64.1765C120.19 63.9776 120.047 63.7897 119.98 63.6129Z" fill="black"/>
<path d="M99.1543 74.1544C99.1543 74.0218 99.1985 73.9003 99.2869 73.7898C99.3753 73.6793 99.4747 73.5688 99.5852 73.4583C99.8504 73.7014 100.082 73.8892 100.281 74.0218C100.458 74.1544 100.635 74.2649 100.812 74.3533C100.966 74.4417 101.132 74.497 101.309 74.5191C101.486 74.5412 101.696 74.5522 101.939 74.5522C103.088 74.5522 104.182 74.2428 105.221 73.624C106.259 73.0273 107.232 72.1544 108.138 71.0052C109.066 69.8561 109.906 68.4527 110.657 66.7953C111.408 65.1378 112.071 63.2593 112.646 61.1599C112.381 61.4251 112.049 61.7234 111.652 62.0549C111.276 62.3643 110.878 62.6627 110.458 62.95C110.038 63.2372 109.618 63.5024 109.199 63.7455C108.801 63.9886 108.458 64.1654 108.171 64.2759C107.795 64.2096 107.442 64.0549 107.11 63.8118C106.801 63.5466 106.524 63.2262 106.281 62.8505C106.038 62.4748 105.85 62.0549 105.718 61.5908C105.585 61.1046 105.519 60.5964 105.519 60.066C105.519 59.2041 105.674 58.3201 105.983 57.414C106.315 56.5079 106.745 55.624 107.276 54.7621C107.806 53.8781 108.425 53.0494 109.132 52.2759C109.862 51.5024 110.624 50.8284 111.42 50.2538C112.237 49.6792 113.055 49.2261 113.873 48.8946C114.712 48.5411 115.53 48.3643 116.326 48.3643C117.099 48.3643 117.674 48.53 118.049 48.8615C118.447 49.1709 118.734 49.7123 118.911 50.4858C118.668 50.3532 118.359 50.2869 117.983 50.2869C117.453 50.2869 116.834 50.4969 116.127 50.9168C115.442 51.3366 114.734 51.8891 114.005 52.5742C113.298 53.2372 112.591 54.0107 111.884 54.8947C111.176 55.7566 110.547 56.6405 109.994 57.5466C109.464 58.4527 109.022 59.3367 108.668 60.1986C108.337 61.0604 108.171 61.8339 108.171 62.519C108.171 62.6737 108.182 62.7732 108.204 62.8174C108.226 62.8395 108.259 62.8505 108.304 62.8505C108.502 62.8505 108.768 62.74 109.099 62.519C109.453 62.298 109.839 62.0218 110.259 61.6903C110.701 61.3367 111.154 60.9389 111.618 60.4969C112.083 60.0328 112.525 59.5687 112.944 59.1046C113.895 58.0439 114.757 56.8615 115.53 55.5577C116.326 54.2317 116.955 52.9499 117.42 51.7123C118.016 51.7565 118.547 51.856 119.011 52.0107C119.475 52.1654 119.795 52.3311 119.972 52.5079C119.221 54.2317 118.613 55.6792 118.149 56.8505C117.707 58.0218 117.32 59.0604 116.989 59.9665C116.392 61.5577 115.828 63.0052 115.298 64.3091C114.79 65.6351 114.259 66.8505 113.707 67.9555C113.176 69.0826 112.591 70.1213 111.95 71.0715C111.331 72.0439 110.624 72.9721 109.828 73.8561C109.453 74.276 109.022 74.6406 108.536 74.95C108.071 75.2815 107.585 75.5577 107.077 75.7787C106.591 75.9997 106.105 76.1655 105.618 76.276C105.154 76.3865 104.723 76.4417 104.326 76.4417C103.795 76.4417 103.254 76.3754 102.701 76.2428C102.149 76.1323 101.64 75.9666 101.176 75.7456C100.69 75.5467 100.27 75.3036 99.9167 75.0163C99.5631 74.7511 99.309 74.4638 99.1543 74.1544Z" fill="black"/>
<path d="M95.1319 65.4356C93.8723 65.303 92.8667 64.7505 92.1154 63.7781C91.364 62.8057 90.9883 61.5681 90.9883 60.0654C90.9883 59.1814 91.1209 58.2643 91.3861 57.314C91.6513 56.3637 92.027 55.4466 92.5132 54.5626C92.9993 53.6565 93.5739 52.8057 94.2369 52.0101C94.8999 51.2145 95.6181 50.5294 96.3916 49.9548C97.6071 49.0487 98.7452 48.5957 99.806 48.5957C100.513 48.9714 101.209 49.7559 101.894 50.9493C102.005 50.9493 102.104 50.9493 102.193 50.9493C102.281 50.9272 102.381 50.9162 102.491 50.9162C103.662 50.9162 104.248 51.9548 104.248 54.0322C104.248 55.4245 104.016 56.7504 103.552 58.0101C103.11 59.2477 102.48 60.3748 101.662 61.3913C100.867 62.4079 99.9054 63.2698 98.7784 63.977C97.6734 64.6621 96.4579 65.1483 95.1319 65.4356ZM96.8226 54.9935C96.4469 55.5018 96.0933 56.0543 95.7618 56.651C95.4303 57.2477 95.143 57.8554 94.8999 58.4742C94.6568 59.0709 94.469 59.6565 94.3364 60.2311C94.2038 60.7836 94.1375 61.2808 94.1375 61.7228C94.1375 62.2532 94.2259 62.7615 94.4027 63.2477C94.5795 63.7339 94.7784 64.0101 94.9994 64.0764C95.9938 63.8554 96.8999 63.4466 97.7176 62.8499C98.5574 62.2311 99.2756 61.4687 99.8723 60.5626C100.491 59.6565 100.966 58.6289 101.298 57.4797C101.651 56.3305 101.828 55.104 101.828 53.8001C101.828 53.2256 101.795 52.7725 101.729 52.441C101.662 52.1095 101.552 51.8222 101.397 51.5791C100.425 51.8664 99.5519 52.3305 98.7784 52.9714C98.027 53.6123 97.375 54.2863 96.8226 54.9935Z" fill="black"/>
<path d="M77.0547 63.6129C77.1652 62.9721 77.353 62.1323 77.6182 61.0936C77.9055 60.0328 78.237 58.9168 78.6127 57.7455C78.9884 56.5521 79.3862 55.3588 79.8061 54.1654C80.226 52.972 80.6348 51.9002 81.0326 50.9499C81.3199 50.2648 81.574 49.7344 81.795 49.3587C82.016 48.9609 82.2591 48.6295 82.5243 48.3643C82.8337 48.4085 83.1542 48.4858 83.4857 48.5963C83.8171 48.7068 84.1376 48.8394 84.447 48.9941C84.7564 49.1488 85.0326 49.3145 85.2757 49.4913C85.5188 49.646 85.7067 49.8007 85.8393 49.9554C85.2426 50.6626 84.7122 51.4692 84.2481 52.3753C83.8061 53.2814 83.3531 54.4416 82.889 55.856C84.0823 54.7952 85.1321 53.7786 86.0382 52.8063C86.9663 51.8339 87.8282 50.751 88.6238 49.5576C88.7564 49.4471 88.9884 49.3919 89.3199 49.3919C89.6293 49.3919 89.9277 49.4471 90.215 49.5576C90.5023 49.646 90.7012 49.7786 90.8117 49.9554C90.4139 51.0162 90.215 52.0659 90.215 53.1046C90.215 54.077 90.3586 54.8063 90.6459 55.2925C90.6238 55.4251 90.4691 55.6792 90.1818 56.0549C89.9166 56.4306 89.6183 56.7842 89.2868 57.1157C88.6901 56.8063 88.1597 56.3864 87.6956 55.856C87.2315 55.3035 86.889 54.7068 86.668 54.0659C85.6293 54.7952 84.7453 55.5135 84.016 56.2206C83.2868 56.9057 82.6569 57.6792 82.1265 58.5411C81.6182 59.3809 81.1763 60.3533 80.8006 61.4582C80.447 62.5632 80.1044 63.8781 79.7729 65.403C79.574 65.3809 79.3309 65.3036 79.0436 65.171C78.7785 65.0605 78.5022 64.9168 78.2149 64.74C77.9497 64.5632 77.7066 64.3754 77.4856 64.1765C77.2646 63.9776 77.121 63.7897 77.0547 63.6129Z" fill="black"/>
<path d="M79.5157 46.4079C79.5157 47.6233 79.2063 48.7836 78.5875 49.8885C77.9908 50.9935 77.1732 51.9659 76.1345 52.8057C75.1179 53.6234 73.9135 54.2753 72.5212 54.7615C71.151 55.2477 69.6925 55.4908 68.1455 55.4908C67.593 55.4908 67.151 55.4245 66.8195 55.2919C66.5101 55.1372 66.1565 54.8499 65.7587 54.43C64.6538 56.8388 63.7477 59.0598 63.0405 61.093C62.3554 63.1041 61.814 65.0599 61.4162 66.9604C60.5764 66.7615 59.8913 66.4079 59.3609 65.8997C58.8305 65.4135 58.3443 64.7947 57.9023 64.0433C58.1233 63.6234 58.3885 63.0709 58.6979 62.3858C59.0073 61.7007 59.383 60.861 59.825 59.8665C60.267 58.8499 60.7753 57.6455 61.3499 56.2532C61.9466 54.8388 62.6427 53.1924 63.4383 51.314C63.7919 50.4521 64.1013 49.7007 64.3665 49.0598C64.6317 48.4189 64.8637 47.8222 65.0626 47.2697C65.2615 46.6952 65.4383 46.1316 65.593 45.5791C65.7698 45.0266 65.9466 44.4189 66.1234 43.7559C65.0847 44.0874 64.1234 44.4741 63.2394 44.9161C62.3775 45.3581 61.6593 45.8222 61.0847 46.3084C60.8858 46.1758 60.6758 45.9769 60.4548 45.7117C60.2559 45.4465 60.0681 45.1592 59.8913 44.8498C59.7145 44.5183 59.5598 44.1869 59.4272 43.8554C59.2946 43.5239 59.2173 43.2255 59.1952 42.9603C59.8361 42.5183 60.6316 42.1095 61.5819 41.7338C62.5322 41.3581 63.5488 41.0377 64.6317 40.7725C65.7145 40.4852 66.8306 40.2642 67.9797 40.1095C69.151 39.9548 70.267 39.8774 71.3278 39.8774C72.5875 39.8774 73.7256 40.0432 74.7422 40.3747C75.7588 40.6841 76.6207 41.1261 77.3278 41.7007C78.035 42.2752 78.5765 42.9603 78.9522 43.7559C79.3279 44.5515 79.5157 45.4355 79.5157 46.4079ZM73.6151 42.4299C72.7753 42.4299 71.9135 42.4962 71.0295 42.6288L71.4273 43.2255C71.2063 43.5128 70.93 43.9438 70.5985 44.5183C70.267 45.0929 69.9024 45.7891 69.5046 46.6068C69.1068 47.4023 68.6648 48.2974 68.1786 49.2919C67.7145 50.2863 67.2173 51.3361 66.6869 52.441C68.4107 52.441 69.9797 52.2863 71.3941 51.9769C72.8085 51.6455 74.0129 51.2035 75.0074 50.651C76.024 50.0764 76.8085 49.4134 77.361 48.662C77.9356 47.9106 78.2229 47.104 78.2229 46.2421C78.2229 45.0929 77.8361 44.1758 77.0626 43.4907C76.2892 42.7835 75.14 42.4299 73.6151 42.4299Z" fill="black"/>
<path d="M229.864 15.1705C229.842 15.5904 229.765 16.0323 229.632 16.4964C229.521 16.9384 229.378 17.3473 229.201 17.723C229.024 18.0766 228.836 18.3749 228.637 18.618C228.439 18.8611 228.251 18.9826 228.074 18.9826C227.831 18.9605 227.687 18.7948 227.643 18.4854C227.643 18.4191 227.665 18.3196 227.709 18.1871C227.776 18.0324 227.842 17.8666 227.908 17.6898C227.974 17.513 228.03 17.3362 228.074 17.1594C228.14 16.9826 228.173 16.8279 228.173 16.6953C228.173 16.3859 228.096 16.1318 227.941 15.9329C227.809 15.7119 227.621 15.6014 227.378 15.6014C226.494 15.6014 225.82 16.1539 225.356 17.2589C224.892 18.3638 224.66 19.9882 224.66 22.1318C224.66 22.3528 224.671 22.4854 224.693 22.5296C225.157 22.5075 225.566 22.4965 225.919 22.4965C226.295 22.4744 226.66 22.4633 227.013 22.4633C227.035 22.5075 227.046 22.5959 227.046 22.7285C227.046 22.9274 227.002 23.071 226.914 23.1594C226.405 23.2699 225.997 23.3694 225.687 23.4578C225.4 23.5241 225.179 23.5904 225.024 23.6567C224.87 23.723 224.77 23.8003 224.726 23.8887C224.704 23.955 224.693 24.0545 224.693 24.1871C224.693 24.3639 224.693 24.5407 224.693 24.7175C224.715 24.8943 224.726 25.1153 224.726 25.3805C224.726 27.2368 224.218 28.7285 223.201 29.8556C222.207 30.9827 220.814 31.6346 219.024 31.8114C218.715 31.7893 218.394 31.7009 218.063 31.5462C217.731 31.3915 217.411 31.1926 217.102 30.9495C216.814 30.7064 216.56 30.4302 216.339 30.1208C216.118 29.8335 215.963 29.5352 215.875 29.2258C215.875 28.386 216.052 27.5904 216.405 26.839C216.759 26.0655 217.234 25.3915 217.831 24.8169C218.45 24.2202 219.168 23.7451 219.986 23.3915C220.825 23.0158 221.731 22.7948 222.704 22.7285C222.704 22.176 222.649 21.6346 222.538 21.1042C222.428 20.5738 222.306 20.0655 222.173 19.5793C222.063 19.071 221.952 18.5848 221.842 18.1208C221.731 17.6346 221.676 17.1594 221.676 16.6953C221.676 16.0986 221.798 15.513 222.041 14.9384C222.284 14.3417 222.604 13.8003 223.002 13.3141C223.4 12.8058 223.864 12.3749 224.394 12.0213C224.925 11.6677 225.477 11.4246 226.052 11.292C226.295 11.3583 226.615 11.5572 227.013 11.8887C227.433 12.1981 227.842 12.5517 228.24 12.9495C228.637 13.3472 228.991 13.7561 229.3 14.176C229.61 14.5738 229.798 14.9053 229.864 15.1705ZM218.925 30.2866C219.455 30.0656 219.952 29.7451 220.416 29.3252C220.903 28.9053 221.323 28.4302 221.676 27.8998C222.03 27.3694 222.306 26.8059 222.505 26.2092C222.726 25.6125 222.836 25.0269 222.836 24.4523C222.394 24.5186 221.908 24.7285 221.378 25.0821C220.847 25.4136 220.35 25.8224 219.886 26.3086C219.422 26.7727 219.035 27.2589 218.726 27.7672C218.416 28.2755 218.262 28.7175 218.262 29.0932C218.262 29.5794 218.483 29.9772 218.925 30.2866Z" fill="black"/>
<path d="M217.476 11.5572C217.343 11.4467 217.222 11.2699 217.111 11.0268C217.001 10.7837 216.945 10.5406 216.945 10.2975C217.211 9.52401 217.454 8.64003 217.675 7.64555C217.918 6.62897 218.039 5.50189 218.039 4.26432C218.039 3.71183 218.006 3.14829 217.94 2.5737C217.896 1.99911 217.796 1.39138 217.641 0.750488C218.702 0.816787 219.664 1.04883 220.525 1.44662C221.409 1.82232 221.995 2.28641 222.282 2.8389C221.907 4.84996 221.332 6.59582 220.559 8.07649C219.785 9.55716 218.757 10.7174 217.476 11.5572Z" fill="black"/>
<path d="M203.309 26.2425C203.309 25.2701 203.541 23.911 204.005 22.1651C204.469 20.3971 205.121 18.3419 205.961 15.9993C207.331 12.2645 208.612 9.15953 209.806 6.68438C211.021 4.18713 212.204 2.24237 213.353 0.850098C213.618 0.894296 213.938 1.00479 214.314 1.18159C214.712 1.35839 215.099 1.55728 215.474 1.77828C215.85 1.97717 216.182 2.18712 216.469 2.40812C216.778 2.62911 216.977 2.80591 217.066 2.93851C215.342 4.97166 213.828 7.15952 212.524 9.50207C211.22 11.8446 210.027 14.5297 208.944 17.5574C208.016 20.1651 207.309 22.5187 206.822 24.6182C206.336 26.6955 206.093 28.4303 206.093 29.8226C206.093 30.1983 206.093 30.4303 206.093 30.5187C206.093 30.6071 206.104 30.6955 206.126 30.7839C205.817 30.7397 205.552 30.6624 205.331 30.5519C205.11 30.4414 204.966 30.3088 204.9 30.1541C204.856 30.0436 204.734 29.8778 204.535 29.6569C204.336 29.458 204.159 29.3033 204.005 29.1928C203.806 29.0602 203.64 28.7176 203.507 28.1651C203.375 27.5905 203.309 26.9497 203.309 26.2425Z" fill="black"/>
<path d="M201.806 14.64C201.718 16.0102 201.475 17.1925 201.077 18.187C200.679 19.1594 200.105 20.0212 199.353 20.7726C198.624 21.5019 197.729 22.1649 196.668 22.7616C195.607 23.3583 194.37 23.9329 192.956 24.4853C192.956 24.6179 192.944 24.7616 192.922 24.9163C192.922 25.0489 192.922 25.1925 192.922 25.3472C192.922 25.6345 192.944 25.9329 192.989 26.2423C193.033 26.5517 193.11 26.8389 193.221 27.1041C193.331 27.3693 193.486 27.5903 193.685 27.7671C193.884 27.9218 194.138 27.9992 194.447 27.9992C195.044 27.9992 195.63 27.8666 196.204 27.6014C196.779 27.3362 197.32 27.0157 197.828 26.6401C198.359 26.2423 198.845 25.8224 199.287 25.3804C199.751 24.9163 200.16 24.4964 200.514 24.1207C200.735 24.3196 200.922 24.5074 201.077 24.6842C200.083 26.0102 198.989 27.1152 197.795 27.9992C196.624 28.8611 195.508 29.4135 194.447 29.6566C192.922 29.4798 191.729 28.9274 190.867 27.9992C190.027 27.0489 189.607 25.9108 189.607 24.5848C189.607 23.6787 189.729 22.7616 189.972 21.8334C190.237 20.8831 190.591 19.977 191.033 19.1152C191.497 18.2312 192.027 17.4024 192.624 16.629C193.243 15.8555 193.895 15.1814 194.58 14.6068C195.287 14.0323 196.005 13.5792 196.735 13.2477C197.486 12.9162 198.226 12.7505 198.956 12.7505C199.972 12.8831 200.922 13.5129 201.806 14.64ZM199.519 15.7339C198.922 15.8223 198.304 16.0654 197.663 16.4632C197.022 16.861 196.414 17.3914 195.839 18.0544C195.287 18.7174 194.779 19.4908 194.315 20.3748C193.851 21.2588 193.486 22.2091 193.221 23.2257C194.989 22.3417 196.458 21.2588 197.63 19.977C198.801 18.6732 199.431 17.2588 199.519 15.7339Z" fill="black"/>
<path d="M168.32 38.2428C168.32 38.1102 168.365 37.9887 168.453 37.8782C168.541 37.7677 168.641 37.6572 168.751 37.5467C169.016 37.7898 169.248 37.9776 169.447 38.1102C169.624 38.2428 169.801 38.3533 169.978 38.4417C170.132 38.5301 170.298 38.5854 170.475 38.6075C170.652 38.6295 170.862 38.6406 171.105 38.6406C172.254 38.6406 173.348 38.3312 174.387 37.7124C175.425 37.1157 176.398 36.2428 177.304 35.0936C178.232 33.9444 179.072 32.5411 179.823 30.8837C180.575 29.2262 181.237 27.3477 181.812 25.2483C181.547 25.5135 181.215 25.8118 180.818 26.1433C180.442 26.4527 180.044 26.751 179.624 27.0383C179.204 27.3256 178.784 27.5908 178.365 27.8339C177.967 28.077 177.624 28.2538 177.337 28.3643C176.961 28.298 176.608 28.1433 176.276 27.9002C175.967 27.635 175.691 27.3146 175.447 26.9389C175.204 26.5632 175.016 26.1433 174.884 25.6792C174.751 25.193 174.685 24.6847 174.685 24.1543C174.685 23.2925 174.84 22.4085 175.149 21.5024C175.481 20.5963 175.911 19.7123 176.442 18.8505C176.972 17.9665 177.591 17.1377 178.298 16.3643C179.028 15.5908 179.79 14.9167 180.586 14.3421C181.403 13.7676 182.221 13.3145 183.039 12.983C183.878 12.6294 184.696 12.4526 185.492 12.4526C186.265 12.4526 186.84 12.6184 187.215 12.9499C187.613 13.2593 187.901 13.8007 188.077 14.5742C187.834 14.4416 187.525 14.3753 187.149 14.3753C186.619 14.3753 186 14.5852 185.293 15.0051C184.608 15.425 183.9 15.9775 183.171 16.6626C182.464 17.3256 181.757 18.0991 181.05 18.9831C180.342 19.8449 179.713 20.7289 179.16 21.635C178.63 22.5411 178.188 23.4251 177.834 24.2869C177.503 25.1488 177.337 25.9223 177.337 26.6074C177.337 26.7621 177.348 26.8615 177.37 26.9057C177.392 26.9278 177.425 26.9389 177.47 26.9389C177.668 26.9389 177.934 26.8284 178.265 26.6074C178.619 26.3864 179.005 26.1102 179.425 25.7787C179.867 25.4251 180.32 25.0273 180.784 24.5853C181.249 24.1212 181.691 23.6571 182.11 23.193C183.061 22.1322 183.923 20.9499 184.696 19.646C185.492 18.3201 186.121 17.0383 186.586 15.8007C187.182 15.8449 187.713 15.9444 188.177 16.0991C188.641 16.2538 188.961 16.4195 189.138 16.5963C188.387 18.3201 187.779 19.7676 187.315 20.9389C186.873 22.1101 186.486 23.1488 186.155 24.0549C185.558 25.6461 184.994 27.0936 184.464 28.3975C183.956 29.7234 183.425 30.9389 182.873 32.0439C182.342 33.171 181.757 34.2096 181.116 35.1599C180.497 36.1323 179.79 37.0605 178.994 37.9445C178.619 38.3644 178.188 38.729 177.702 39.0384C177.237 39.3699 176.751 39.6461 176.243 39.8671C175.757 40.0881 175.271 40.2539 174.784 40.3644C174.32 40.4749 173.889 40.5301 173.492 40.5301C172.961 40.5301 172.42 40.4638 171.867 40.3312C171.315 40.2207 170.807 40.055 170.342 39.834C169.856 39.6351 169.436 39.392 169.083 39.1047C168.729 38.8395 168.475 38.5522 168.32 38.2428Z" fill="black"/>
<path d="M162.486 12.2866C163.061 12.4634 163.602 12.8612 164.111 13.48C164.619 14.0767 164.994 14.7397 165.238 15.469C164.994 16.0656 164.619 16.7839 164.111 17.6237C163.602 18.4634 163.094 19.3253 162.586 20.2093C162.077 21.0712 161.613 21.8999 161.193 22.6955C160.796 23.469 160.564 24.1099 160.497 24.6182C160.851 24.2425 161.238 23.8115 161.657 23.3253C162.099 22.8171 162.519 22.3198 162.917 21.8336C163.337 21.3253 163.724 20.8723 164.077 20.4745C164.431 20.0546 164.707 19.7452 164.906 19.5463C165.326 19.1043 165.823 18.596 166.398 18.0215C166.972 17.4248 167.569 16.8723 168.188 16.364C168.829 15.8336 169.47 15.3916 170.111 15.038C170.751 14.6623 171.337 14.4745 171.867 14.4745C172.442 14.4745 172.917 14.6734 173.293 15.0712C173.691 15.4469 174 15.8446 174.221 16.2645C174.221 16.3087 174.133 16.375 173.956 16.4634C173.801 16.5297 173.569 16.7397 173.26 17.0933C172.95 17.4911 172.597 18.0436 172.199 18.7507C171.823 19.4358 171.448 20.1872 171.072 21.0049C170.718 21.8005 170.42 22.6182 170.177 23.4579C169.934 24.2977 169.812 25.0602 169.812 25.7452C169.812 26.2977 169.878 26.6513 170.011 26.806C170.166 26.9607 170.376 27.0381 170.641 27.0381C170.884 27.0381 171.138 26.9828 171.403 26.8723C171.669 26.7618 171.879 26.7066 172.033 26.7066C172.122 26.7508 172.188 26.8502 172.232 27.0049C172.298 27.1375 172.332 27.2591 172.332 27.3696C172.155 27.5243 171.945 27.679 171.702 27.8337C171.459 27.9883 171.204 28.132 170.939 28.2646C170.674 28.3972 170.409 28.5077 170.144 28.5961C169.901 28.6845 169.68 28.7287 169.481 28.7287C168.84 28.7287 168.309 28.6292 167.89 28.4303C167.492 28.2535 167.171 28.0104 166.928 27.7011C166.707 27.3917 166.553 27.027 166.464 26.6071C166.376 26.1651 166.332 25.701 166.332 25.2149C166.332 24.9497 166.354 24.6513 166.398 24.3198C166.442 23.9883 166.53 23.6016 166.663 23.1596C166.796 22.6955 166.983 22.1541 167.227 21.5353C167.47 20.8944 167.779 20.132 168.155 19.248C168.111 19.248 167.812 19.4027 167.26 19.7121C166.707 20.0215 166.111 20.4966 165.47 21.1375C164.431 22.132 163.492 23.1154 162.652 24.0878C161.834 25.0602 160.994 26.143 160.133 27.3364C159.646 28.0215 159.215 28.5961 158.84 29.0602C158.486 29.5464 158.177 29.8668 157.912 30.0215C157.448 29.7563 157.105 29.3806 156.884 28.8944C156.663 28.4303 156.497 27.9441 156.387 27.4359C156.387 27.016 156.442 26.4856 156.552 25.8447C156.685 25.2038 156.851 24.4966 157.05 23.7231C157.271 22.9276 157.536 22.0988 157.845 21.2369C158.155 20.3751 158.497 19.5132 158.873 18.6513C159.713 16.7065 160.475 15.1817 161.16 14.0767C161.867 12.9717 162.309 12.375 162.486 12.2866Z" fill="black"/>
<path d="M138.376 30.8826C137.316 30.5732 136.575 30.2638 136.155 29.9544C135.757 29.645 135.559 29.2583 135.559 28.7942C135.559 28.4406 135.658 27.9433 135.857 27.3025C136.056 26.6616 136.343 25.9102 136.719 25.0483C137.117 24.1643 137.581 23.1919 138.111 22.1312C138.664 21.0704 139.282 19.9323 139.967 18.7168C139.393 18.6947 138.874 18.6836 138.409 18.6836C137.967 18.6615 137.603 18.6505 137.316 18.6505C137.448 18.319 137.824 18.0317 138.443 17.7886C139.061 17.5455 139.879 17.3356 140.896 17.1588C141.758 15.7223 142.675 14.3521 143.647 13.0482C144.642 11.7444 145.636 10.551 146.63 9.46812C147.625 8.36314 148.619 7.40181 149.614 6.58413C150.608 5.74435 151.559 5.08136 152.465 4.59517C152.487 4.44047 152.498 4.30788 152.498 4.19738C152.52 4.08688 152.531 4.00953 152.531 3.96533C152.84 3.96533 153.249 4.04268 153.758 4.19738C154.288 4.35207 154.796 4.53992 155.282 4.76092C155.791 4.98191 156.233 5.21396 156.608 5.45705C157.006 5.67805 157.227 5.86589 157.271 6.02059C156.542 7.30236 155.824 9.22502 155.117 11.7886C154.41 14.33 153.824 17.3798 153.36 20.9378C153.249 21.8218 153.15 22.8273 153.061 23.9544C152.995 25.0814 152.962 26.3411 152.962 27.7334C152.962 28.2196 152.962 28.7168 152.962 29.2251C152.962 29.7334 152.984 30.2638 153.028 30.8163C152.984 30.8384 152.94 30.8494 152.896 30.8494C152.851 30.8494 152.763 30.8494 152.63 30.8494C152.321 30.8494 151.956 30.7942 151.537 30.6837C151.139 30.5953 150.741 30.4737 150.343 30.319C149.967 30.1864 149.636 30.0317 149.349 29.8549C149.084 29.6782 148.918 29.5235 148.851 29.3909C148.829 29.1036 148.818 28.8163 148.818 28.529C148.818 28.2638 148.818 27.9765 148.818 27.6671C148.818 26.2969 148.863 24.9047 148.951 23.4903C149.061 22.0759 149.238 20.6173 149.481 19.1146C149.172 19.0925 148.763 19.0704 148.255 19.0483C147.747 19.0041 147.172 18.9709 146.531 18.9488C145.912 18.9267 145.238 18.9046 144.509 18.8825C143.802 18.8383 143.106 18.8052 142.42 18.7831C141.89 19.7776 141.393 20.772 140.929 21.7665C140.465 22.7389 140.067 23.7223 139.735 24.7168C139.36 25.7776 139.05 26.8384 138.807 27.8991C138.586 28.9599 138.443 29.9544 138.376 30.8826ZM151.172 10.9598C151.26 10.6504 151.36 10.2306 151.47 9.70017C151.603 9.14768 151.724 8.57309 151.835 7.9764C151.282 8.1753 150.664 8.53994 149.979 9.07033C149.316 9.60072 148.619 10.2637 147.89 11.0593C147.183 11.8328 146.454 12.7168 145.702 13.7112C144.973 14.6836 144.266 15.7223 143.581 16.8273C145.437 16.6726 147.548 16.5731 149.912 16.5289C150.089 15.6007 150.277 14.6836 150.476 13.7775C150.697 12.8494 150.929 11.9101 151.172 10.9598Z" fill="black"/>
<path d="M128.829 15.1705C128.807 15.5904 128.729 16.0323 128.597 16.4964C128.486 16.9384 128.343 17.3473 128.166 17.723C127.989 18.0766 127.801 18.3749 127.602 18.618C127.403 18.8611 127.216 18.9826 127.039 18.9826C126.796 18.9605 126.652 18.7948 126.608 18.4854C126.608 18.4191 126.63 18.3196 126.674 18.1871C126.74 18.0324 126.807 17.8666 126.873 17.6898C126.939 17.513 126.995 17.3362 127.039 17.1594C127.105 16.9826 127.138 16.8279 127.138 16.6953C127.138 16.3859 127.061 16.1318 126.906 15.9329C126.774 15.7119 126.586 15.6014 126.343 15.6014C125.459 15.6014 124.785 16.1539 124.321 17.2589C123.856 18.3638 123.624 19.9882 123.624 22.1318C123.624 22.3528 123.635 22.4854 123.658 22.5296C124.122 22.5075 124.53 22.4965 124.884 22.4965C125.26 22.4744 125.624 22.4633 125.978 22.4633C126 22.5075 126.011 22.5959 126.011 22.7285C126.011 22.9274 125.967 23.071 125.879 23.1594C125.37 23.2699 124.961 23.3694 124.652 23.4578C124.365 23.5241 124.144 23.5904 123.989 23.6567C123.834 23.723 123.735 23.8003 123.691 23.8887C123.669 23.955 123.658 24.0545 123.658 24.1871C123.658 24.3639 123.658 24.5407 123.658 24.7175C123.68 24.8943 123.691 25.1153 123.691 25.3805C123.691 27.2368 123.182 28.7285 122.166 29.8556C121.171 30.9827 119.779 31.6346 117.989 31.8114C117.68 31.7893 117.359 31.7009 117.028 31.5462C116.696 31.3915 116.376 31.1926 116.066 30.9495C115.779 30.7064 115.525 30.4302 115.304 30.1208C115.083 29.8335 114.928 29.5352 114.84 29.2258C114.84 28.386 115.017 27.5904 115.37 26.839C115.724 26.0655 116.199 25.3915 116.796 24.8169C117.414 24.2202 118.133 23.7451 118.95 23.3915C119.79 23.0158 120.696 22.7948 121.669 22.7285C121.669 22.176 121.613 21.6346 121.503 21.1042C121.392 20.5738 121.271 20.0655 121.138 19.5793C121.028 19.071 120.917 18.5848 120.807 18.1208C120.696 17.6346 120.641 17.1594 120.641 16.6953C120.641 16.0986 120.763 15.513 121.006 14.9384C121.249 14.3417 121.569 13.8003 121.967 13.3141C122.365 12.8058 122.829 12.3749 123.359 12.0213C123.89 11.6677 124.442 11.4246 125.017 11.292C125.26 11.3583 125.58 11.5572 125.978 11.8887C126.398 12.1981 126.807 12.5517 127.205 12.9495C127.602 13.3472 127.956 13.7561 128.265 14.176C128.575 14.5738 128.763 14.9053 128.829 15.1705ZM117.89 30.2866C118.42 30.0656 118.917 29.7451 119.381 29.3252C119.867 28.9053 120.287 28.4302 120.641 27.8998C120.995 27.3694 121.271 26.8059 121.47 26.2092C121.691 25.6125 121.801 25.0269 121.801 24.4523C121.359 24.5186 120.873 24.7285 120.343 25.0821C119.812 25.4136 119.315 25.8224 118.851 26.3086C118.387 26.7727 118 27.2589 117.691 27.7672C117.381 28.2755 117.227 28.7175 117.227 29.0932C117.227 29.5794 117.448 29.9772 117.89 30.2866Z" fill="black"/>
<path d="M116.441 11.5572C116.308 11.4467 116.186 11.2699 116.076 11.0268C115.965 10.7837 115.91 10.5406 115.91 10.2975C116.175 9.52401 116.418 8.64003 116.639 7.64555C116.883 6.62897 117.004 5.50189 117.004 4.26432C117.004 3.71183 116.971 3.14829 116.905 2.5737C116.86 1.99911 116.761 1.39138 116.606 0.750488C117.667 0.816787 118.628 1.04883 119.49 1.44662C120.374 1.82232 120.96 2.28641 121.247 2.8389C120.871 4.84996 120.297 6.59582 119.523 8.07649C118.75 9.55716 117.722 10.7174 116.441 11.5572Z" fill="black"/>
<path d="M110.58 14.64C110.491 16.0102 110.248 17.1925 109.851 18.187C109.453 19.1594 108.878 20.0212 108.127 20.7726C107.397 21.5019 106.502 22.1649 105.442 22.7616C104.381 23.3583 103.143 23.9329 101.729 24.4853C101.729 24.6179 101.718 24.7616 101.696 24.9163C101.696 25.0489 101.696 25.1925 101.696 25.3472C101.696 25.6345 101.718 25.9329 101.762 26.2423C101.806 26.5517 101.884 26.8389 101.994 27.1041C102.105 27.3693 102.259 27.5903 102.458 27.7671C102.657 27.9218 102.911 27.9992 103.221 27.9992C103.817 27.9992 104.403 27.8666 104.978 27.6014C105.552 27.3362 106.094 27.0157 106.602 26.6401C107.132 26.2423 107.618 25.8224 108.06 25.3804C108.525 24.9163 108.933 24.4964 109.287 24.1207C109.508 24.3196 109.696 24.5074 109.851 24.6842C108.856 26.0102 107.762 27.1152 106.569 27.9992C105.397 28.8611 104.281 29.4135 103.221 29.6566C101.696 29.4798 100.502 28.9274 99.6405 27.9992C98.8007 27.0489 98.3809 25.9108 98.3809 24.5848C98.3809 23.6787 98.5024 22.7616 98.7455 21.8334C99.0107 20.8831 99.3643 19.977 99.8063 19.1152C100.27 18.2312 100.801 17.4024 101.397 16.629C102.016 15.8555 102.668 15.1814 103.353 14.6068C104.06 14.0323 104.779 13.5792 105.508 13.2477C106.259 12.9162 107 12.7505 107.729 12.7505C108.746 12.8831 109.696 13.5129 110.58 14.64ZM108.292 15.7339C107.696 15.8223 107.077 16.0654 106.436 16.4632C105.795 16.861 105.188 17.3914 104.613 18.0544C104.06 18.7174 103.552 19.4908 103.088 20.3748C102.624 21.2588 102.259 22.2091 101.994 23.2257C103.762 22.3417 105.232 21.2588 106.403 19.977C107.574 18.6732 108.204 17.2588 108.292 15.7339Z" fill="black"/>
<path d="M86.1815 12.2866C86.7561 12.4634 87.2975 12.8612 87.8058 13.48C88.3141 14.0767 88.6898 14.7397 88.9329 15.469C88.6898 16.0656 88.3141 16.7839 87.8058 17.6237C87.2975 18.4634 86.7892 19.3253 86.281 20.2093C85.7727 21.0712 85.3086 21.8999 84.8887 22.6955C84.4909 23.469 84.2588 24.1099 84.1926 24.6182C84.5461 24.2425 84.9329 23.8115 85.3528 23.3253C85.7948 22.8171 86.2147 22.3198 86.6124 21.8336C87.0323 21.3253 87.4191 20.8723 87.7727 20.4745C88.1263 20.0546 88.4025 19.7452 88.6014 19.5463C89.0213 19.1043 89.5185 18.596 90.0931 18.0215C90.6677 17.4248 91.2644 16.8723 91.8832 16.364C92.5241 15.8336 93.165 15.3916 93.8059 15.038C94.4467 14.6623 95.0324 14.4745 95.5628 14.4745C96.1374 14.4745 96.6125 14.6734 96.9882 15.0712C97.386 15.4469 97.6954 15.8446 97.9164 16.2645C97.9164 16.3087 97.828 16.375 97.6512 16.4634C97.4965 16.5297 97.2644 16.7397 96.955 17.0933C96.6456 17.4911 96.2921 18.0436 95.8943 18.7507C95.5186 19.4358 95.1429 20.1872 94.7672 21.0049C94.4136 21.8005 94.1152 22.6182 93.8722 23.4579C93.6291 24.2977 93.5075 25.0602 93.5075 25.7452C93.5075 26.2977 93.5738 26.6513 93.7064 26.806C93.8611 26.9607 94.071 27.0381 94.3362 27.0381C94.5793 27.0381 94.8335 26.9828 95.0987 26.8723C95.3639 26.7618 95.5738 26.7066 95.7285 26.7066C95.8169 26.7508 95.8832 26.8502 95.9274 27.0049C95.9937 27.1375 96.0269 27.2591 96.0269 27.3696C95.8501 27.5243 95.6401 27.679 95.397 27.8337C95.1539 27.9883 94.8998 28.132 94.6346 28.2646C94.3694 28.3972 94.1042 28.5077 93.839 28.5961C93.5959 28.6845 93.3749 28.7287 93.176 28.7287C92.5351 28.7287 92.0047 28.6292 91.5848 28.4303C91.1871 28.2535 90.8666 28.0104 90.6235 27.7011C90.4025 27.3917 90.2478 27.027 90.1594 26.6071C90.071 26.1651 90.0268 25.701 90.0268 25.2149C90.0268 24.9497 90.0489 24.6513 90.0931 24.3198C90.1373 23.9883 90.2257 23.6016 90.3583 23.1596C90.4909 22.6955 90.6788 22.1541 90.9219 21.5353C91.165 20.8944 91.4744 20.132 91.85 19.248C91.8058 19.248 91.5075 19.4027 90.955 19.7121C90.4025 20.0215 89.8058 20.4966 89.1649 21.1375C88.1263 22.132 87.187 23.1154 86.3473 24.0878C85.5296 25.0602 84.6898 26.143 83.8279 27.3364C83.3417 28.0215 82.9108 28.5961 82.5351 29.0602C82.1815 29.5464 81.8721 29.8668 81.6069 30.0215C81.1428 29.7563 80.8003 29.3806 80.5793 28.8944C80.3583 28.4303 80.1925 27.9441 80.082 27.4359C80.082 27.016 80.1373 26.4856 80.2478 25.8447C80.3804 25.2038 80.5461 24.4966 80.745 23.7231C80.966 22.9276 81.2312 22.0988 81.5406 21.2369C81.85 20.3751 82.1925 19.5132 82.5682 18.6513C83.408 16.7065 84.1705 15.1817 84.8555 14.0767C85.5627 12.9717 86.0047 12.375 86.1815 12.2866Z" fill="black"/>
<path d="M73.0098 26.1426C73.0098 25.9437 73.0208 25.7006 73.0429 25.4134C73.0871 25.104 73.1534 24.7062 73.2418 24.22C73.3302 23.7117 73.4407 23.104 73.5733 22.3968C73.728 21.6896 73.9158 20.8387 74.1368 19.8443C74.181 19.6233 74.2805 19.2697 74.4352 18.7835C74.5899 18.2973 74.7888 17.789 75.0319 17.2586C75.2971 16.7061 75.6065 16.1757 75.9601 15.6675C76.3357 15.1592 76.7777 14.7835 77.286 14.5404C77.6617 14.6288 78.159 14.8608 78.7777 15.2365C79.3965 15.5901 79.9269 16.0873 80.3689 16.7282C79.8606 17.3028 79.4297 17.8774 79.0761 18.452C78.7446 19.0266 78.4352 19.6233 78.1479 20.2421C77.8827 20.8608 77.6286 21.5017 77.3855 22.1647C77.1645 22.8277 76.9103 23.5238 76.623 24.2531C76.3799 24.8719 76.159 25.5128 75.9601 26.1758C75.7612 26.8167 75.6507 27.3802 75.6286 27.8664C75.6286 28.2642 75.6175 28.5404 75.5954 28.6951C75.5954 28.8719 75.5402 28.9603 75.4297 28.9603C75.3413 28.9603 75.1645 28.9051 74.8993 28.7946C74.6341 28.6841 74.3578 28.5183 74.0705 28.2973C73.8053 28.0542 73.5623 27.7559 73.3413 27.4023C73.1203 27.0487 73.0098 26.6288 73.0098 26.1426ZM79.3413 11.7558C79.3413 11.6232 79.3744 11.4243 79.4407 11.1591C79.3302 11.0486 79.2308 10.8829 79.1424 10.6619C79.0761 10.4409 79.0429 10.242 79.0429 10.0652C79.0429 9.86632 79.065 9.60113 79.1092 9.26963C79.1755 8.91604 79.2529 8.54035 79.3413 8.14256C79.4297 7.74476 79.5402 7.33592 79.6728 6.91603C79.8054 6.47404 79.938 6.07625 80.0706 5.72266C80.3358 5.72266 80.6562 5.8 81.0319 5.9547C81.4297 6.0873 81.8275 6.27515 82.2253 6.51824C82.6231 6.73924 82.9877 6.99338 83.3192 7.28067C83.6507 7.54587 83.9048 7.80001 84.0816 8.04311C83.8385 8.2862 83.5181 8.62875 83.1203 9.07074C82.7225 9.49063 82.3358 9.94367 81.9601 10.4299C81.5844 10.894 81.2418 11.3359 80.9325 11.7558C80.6231 12.1757 80.4242 12.4741 80.3358 12.6509C80.0706 12.6067 79.8385 12.4962 79.6396 12.3194C79.4407 12.1205 79.3413 11.9326 79.3413 11.7558Z" fill="black"/>
<path d="M63.2796 15.6678C63.1691 15.5352 63.0696 15.259 62.9812 14.8391C62.8928 14.3971 62.8486 14.0214 62.8486 13.712C63.4232 13.7562 63.9757 13.8004 64.5061 13.8446C65.0365 13.8667 65.5227 13.8888 65.9647 13.9109C66.2962 13.2479 66.6498 12.596 67.0255 11.9551C67.4232 11.2921 67.7989 10.6954 68.1525 10.165C68.5282 9.61253 68.8708 9.14843 69.1802 8.77274C69.5117 8.39705 69.7658 8.15395 69.9426 8.04346C70.1636 8.04346 70.4398 8.08766 70.7713 8.17605C71.1249 8.24235 71.4785 8.3418 71.8321 8.4744C72.1857 8.5849 72.5061 8.70644 72.7934 8.83904C73.0807 8.97164 73.2796 9.10424 73.3901 9.23683C72.7271 10.0766 72.1525 10.8611 71.6664 11.5904C71.2023 12.2976 70.694 13.1153 70.1415 14.0435C70.5835 14.0435 71.0255 14.0324 71.4675 14.0103C71.9316 13.9882 72.3956 13.9551 72.8597 13.9109C72.9702 14.0214 73.0586 14.165 73.1249 14.3418C73.1912 14.4965 73.2244 14.6623 73.2244 14.8391C72.1415 15.2369 70.8266 15.4579 69.2796 15.5021C68.7271 16.5628 68.2299 17.6236 67.7879 18.6844C67.368 19.7231 67.0034 20.7286 66.694 21.701C66.4067 22.6734 66.1746 23.5905 65.9978 24.4524C65.8431 25.3143 65.7658 26.0877 65.7658 26.7728C65.7658 27.7452 66.1304 28.2866 66.8597 28.3971C67.5227 28.3087 68.1525 28.143 68.7492 27.8999C69.3459 27.6568 69.8763 27.3474 70.3404 26.9717C70.473 27.1706 70.5503 27.3364 70.5724 27.469C70.4398 27.6679 70.2078 27.8999 69.8763 28.1651C69.5669 28.4303 69.2244 28.6844 68.8487 28.9275C68.473 29.1927 68.1083 29.4137 67.7547 29.5905C67.4011 29.7673 67.136 29.8668 66.9592 29.8889C66.4067 29.8668 65.8542 29.7452 65.3017 29.5242C64.7492 29.3032 64.2409 29.027 63.7768 28.6955C63.3348 28.364 62.9702 27.9993 62.6829 27.6016C62.3956 27.1817 62.252 26.7728 62.252 26.375C62.252 25.8446 62.3183 25.1817 62.4509 24.3861C62.6055 23.5684 62.8155 22.6844 63.0807 21.7341C63.3459 20.7838 63.6553 19.7894 64.0089 18.7507C64.3625 17.712 64.7492 16.6844 65.1691 15.6678H63.2796Z" fill="black"/>
<path d="M47.1582 27.7013C47.2687 27.0604 47.4565 26.2207 47.7217 25.182C48.009 24.1212 48.3405 23.0052 48.7162 21.8339C49.0919 20.6405 49.4897 19.4471 49.9096 18.2538C50.3295 17.0604 50.7383 15.9886 51.1361 15.0383C51.4234 14.3532 51.6776 13.8228 51.8986 13.4471C52.1196 13.0493 52.3626 12.7178 52.6278 12.4526C52.9372 12.4968 53.2577 12.5742 53.5892 12.6847C53.9207 12.7952 54.2411 12.9278 54.5505 13.0825C54.8599 13.2372 55.1361 13.4029 55.3792 13.5797C55.6223 13.7344 55.8102 13.8891 55.9428 14.0438C55.3461 14.751 54.8157 15.5576 54.3516 16.4637C53.9096 17.3698 53.4566 18.53 52.9925 19.9444C54.1859 18.8836 55.2356 17.867 56.1417 16.8946C57.0699 15.9223 57.9317 14.8394 58.7273 13.646C58.8599 13.5355 59.092 13.4803 59.4234 13.4803C59.7328 13.4803 60.0312 13.5355 60.3185 13.646C60.6058 13.7344 60.8047 13.867 60.9152 14.0438C60.5174 15.1046 60.3185 16.1543 60.3185 17.193C60.3185 18.1654 60.4621 18.8947 60.7494 19.3808C60.7273 19.5134 60.5726 19.7676 60.2853 20.1433C60.0201 20.519 59.7218 20.8726 59.3903 21.2041C58.7936 20.8947 58.2632 20.4748 57.7991 19.9444C57.335 19.3919 56.9925 18.7952 56.7715 18.1543C55.7328 18.8836 54.8488 19.6018 54.1196 20.309C53.3903 20.9941 52.7604 21.7676 52.2301 22.6295C51.7218 23.4693 51.2798 24.4416 50.9041 25.5466C50.5505 26.6516 50.2079 27.9665 49.8765 29.4914C49.6776 29.4693 49.4345 29.3919 49.1472 29.2593C48.882 29.1488 48.6057 29.0052 48.3184 28.8284C48.0532 28.6516 47.8101 28.4638 47.5891 28.2649C47.3682 28.066 47.2245 27.8781 47.1582 27.7013Z" fill="black"/>
<path d="M43.8205 14.9712C44.0415 14.9712 44.2957 15.0154 44.583 15.1038C44.8924 15.1701 45.1686 15.2696 45.4117 15.4022C45.6548 15.5127 45.8537 15.6342 46.0084 15.7668C46.1852 15.8994 46.2736 16.0209 46.2736 16.1314C45.8316 17.0596 45.4227 17.9989 45.0471 18.9491C44.6714 19.8773 44.3509 20.7723 44.0857 21.6342C43.8205 22.4961 43.6106 23.3027 43.4559 24.0541C43.3233 24.8055 43.257 25.4574 43.257 26.0099C43.257 26.6287 43.3233 27.1481 43.4559 27.568C43.5885 27.9657 43.8095 28.253 44.1189 28.4298C43.8537 28.6066 43.5111 28.7503 43.0912 28.8608C42.6714 28.9713 42.2957 29.0265 41.9642 29.0265C40.7708 29.0265 40.1741 28.2088 40.1741 26.5735C40.1741 25.3138 40.594 23.59 41.4338 21.4022C40.9918 22.4188 40.4835 23.3801 39.9089 24.2862C39.3343 25.1702 38.7487 25.9547 38.152 26.6398C37.5553 27.3249 36.9476 27.8884 36.3288 28.3304C35.7321 28.7503 35.1796 29.0044 34.6713 29.0928C33.8536 29.0486 33.1906 28.6619 32.6824 27.9326C32.1741 27.1812 31.9199 26.2309 31.9199 25.0818C31.9199 23.8442 32.1851 22.5403 32.7155 21.1701C33.2459 19.8 33.9199 18.5292 34.7376 17.358C35.5774 16.1867 36.4835 15.2143 37.4559 14.4408C38.4282 13.6452 39.3675 13.2254 40.2735 13.1812C40.4945 13.2475 40.7376 13.38 41.0028 13.5789C41.2901 13.7778 41.5553 14.0099 41.7984 14.2751C42.0636 14.5403 42.2846 14.8165 42.4614 15.1038C42.6382 15.369 42.7377 15.6011 42.7598 15.7999C41.8758 15.9325 40.9586 16.3635 40.0084 17.0928C39.0802 17.8221 38.2293 18.706 37.4559 19.7447C36.7045 20.7613 36.0857 21.8552 35.5995 23.0265C35.1133 24.1978 34.8702 25.2917 34.8702 26.3083C34.8702 26.7282 35.0249 26.9934 35.3343 27.1039C35.9752 26.9713 36.7155 26.4298 37.5553 25.4795C38.3951 24.5072 39.4117 23.0154 40.605 21.0044C40.826 20.6066 41.0691 20.1646 41.3343 19.6784C41.6216 19.1922 41.9089 18.6839 42.1962 18.1535C42.4835 17.6232 42.7598 17.0928 43.0249 16.5624C43.3122 16.0099 43.5774 15.4795 43.8205 14.9712Z" fill="black"/>
<path d="M15.8089 30.8163C15.7647 30.8384 15.7205 30.8494 15.6763 30.8494C15.6321 30.8494 15.5437 30.8494 15.4111 30.8494C15.1017 30.8494 14.737 30.7942 14.3171 30.6837C13.9193 30.5953 13.5216 30.4737 13.1238 30.319C12.7481 30.1864 12.4166 30.0317 12.1293 29.8549C11.8641 29.6782 11.6983 29.5235 11.632 29.3909C11.6099 29.0815 11.5989 28.761 11.5989 28.4295C11.5989 28.098 11.5989 27.7776 11.5989 27.4682C11.5989 24.9931 11.7757 22.4074 12.1293 19.7113C12.505 17.0151 13.1127 14.098 13.9525 10.9598C14.0409 10.6504 14.1293 10.2637 14.2177 9.79961C14.3282 9.31342 14.4387 8.79408 14.5492 8.24159C14.0188 8.66149 13.389 9.33552 12.6597 10.2637C11.9304 11.1698 11.1569 12.2527 10.3392 13.5123C9.54364 14.7499 8.737 16.1201 7.91932 17.6229C7.12374 19.1035 6.39445 20.6173 5.73146 22.1643C5.06848 23.6892 4.49389 25.203 4.0077 26.7058C3.54361 28.2085 3.25632 29.6008 3.14582 30.8826C2.08504 30.5732 1.3447 30.2638 0.924813 29.9544C0.527021 29.645 0.328125 29.2693 0.328125 28.8273C0.328125 28.4295 0.449672 27.866 0.692767 27.1367C0.935862 26.4074 1.27841 25.5455 1.7204 24.5511C2.16239 23.5566 2.70383 22.4516 3.34471 21.2361C3.9856 19.9986 4.69279 18.6726 5.46627 17.2582C6.35025 15.6449 7.21213 14.1311 8.05192 12.7168C8.9138 11.3024 9.75358 10.0206 10.5713 8.87143C11.3889 7.72226 12.1845 6.72778 12.958 5.88799C13.7536 5.04821 14.5381 4.40732 15.3116 3.96533C15.621 3.96533 16.0299 4.04268 16.5381 4.19738C17.0685 4.35207 17.5768 4.53992 18.063 4.76092C18.5713 4.98191 19.0133 5.21396 19.389 5.45705C19.7868 5.67805 20.0078 5.86589 20.052 6.02059C19.7426 6.63938 19.3779 7.56756 18.958 8.80513C18.5382 10.0427 18.1072 11.446 17.6652 13.0151C17.2453 14.5842 16.8365 16.2527 16.4387 18.0206C16.063 19.7665 15.7647 21.4461 15.5437 23.0593C16.052 21.8439 16.6376 20.5842 17.3006 19.2803C17.9857 17.9543 18.7039 16.6505 19.4553 15.3687C20.2067 14.0648 20.9691 12.8052 21.7426 11.5897C22.5382 10.3742 23.3117 9.26922 24.063 8.27475C24.8144 7.25817 25.5106 6.37418 26.1514 5.6228C26.8144 4.87141 27.4001 4.31893 27.9084 3.96533C28.2178 3.96533 28.6266 4.04268 29.1349 4.19738C29.6653 4.35207 30.1736 4.53992 30.6598 4.76092C31.168 4.98191 31.61 5.21396 31.9857 5.45705C32.3835 5.67805 32.6045 5.86589 32.6487 6.02059C31.9415 7.28026 31.3227 8.81618 30.7923 10.6283C30.262 12.4405 29.8089 14.3411 29.4332 16.33C29.0796 18.319 28.8034 20.2969 28.6045 22.2638C28.4277 24.2085 28.3393 25.9544 28.3393 27.5013C28.3393 28.0096 28.3393 28.54 28.3393 29.0925C28.3393 29.645 28.3614 30.2196 28.4056 30.8163C28.0962 30.8163 27.7205 30.7721 27.2785 30.6837C26.8586 30.6174 26.4387 30.5179 26.0189 30.3853C25.6211 30.2527 25.2564 30.098 24.9249 29.9213C24.5934 29.7666 24.3614 29.5898 24.2288 29.3909C24.2067 29.0815 24.1956 28.761 24.1956 28.4295C24.1956 28.098 24.1956 27.7776 24.1956 27.4682C24.1956 24.9931 24.3724 22.4074 24.726 19.7113C25.1017 17.0151 25.7095 14.098 26.5492 10.9598C26.6376 10.6504 26.7371 10.2306 26.8476 9.70017C26.9581 9.16978 27.0686 8.61729 27.1791 8.0427C26.5603 8.35209 25.8531 8.94878 25.0575 9.83276C24.284 10.6946 23.4885 11.7554 22.6708 13.0151C21.8752 14.2527 21.0796 15.6339 20.284 17.1588C19.5105 18.6836 18.8033 20.2416 18.1625 21.8328C17.5437 23.4019 17.0133 24.971 16.5713 26.54C16.1514 28.087 15.8973 29.5124 15.8089 30.8163Z" fill="black"/>
</svg>
