<svg width="195" height="74" viewBox="0 0 195 74" fill="none" xmlns="http://www.w3.org/2000/svg">
<path d="M140.76 52.9111H145.472L150.009 61.4799H150.203L154.74 52.9111H159.452L152.194 65.774V72.8077H148.017V65.774L140.76 52.9111Z" fill="#2A8053"/>
<path d="M122.893 56.3794V52.9111H139.233V56.3794H133.142V72.8077H128.984V56.3794H122.893Z" fill="#2A8053"/>
<path d="M106.898 72.8077V52.9111H120.305V56.3794H111.105V61.1204H119.616V64.5887H111.105V69.3394H120.344V72.8077H106.898Z" fill="#2A8053"/>
<path d="M103.437 52.9111V72.8077H99.2305V52.9111H103.437Z" fill="#2A8053"/>
<path d="M96.2136 59.8769H91.9584C91.8806 59.3264 91.722 58.8374 91.4823 58.41C91.2427 57.976 90.935 57.6068 90.5594 57.3024C90.1837 56.998 89.7498 56.7649 89.2576 56.6029C88.7718 56.441 88.2439 56.3601 87.674 56.3601C86.6442 56.3601 85.7472 56.6159 84.9829 57.1276C84.2186 57.6327 83.626 58.3711 83.205 59.3426C82.784 60.3076 82.5735 61.4799 82.5735 62.8595C82.5735 64.2779 82.784 65.4696 83.205 66.4347C83.6325 67.3997 84.2284 68.1283 84.9926 68.6206C85.7569 69.1128 86.6409 69.3589 87.6448 69.3589C88.2083 69.3589 88.7297 69.2844 89.209 69.1355C89.6947 68.9865 90.1254 68.7695 90.5011 68.4845C90.8767 68.1931 91.1876 67.8401 91.4337 67.4256C91.6863 67.0111 91.8612 66.5383 91.9584 66.0072L96.2136 66.0266C96.1035 66.9398 95.8282 67.8207 95.3878 68.6691C94.9539 69.5111 94.3677 70.2657 93.6294 70.9328C92.8975 71.5934 92.0231 72.118 91.0063 72.5066C89.9959 72.8887 88.8528 73.0798 87.5768 73.0798C85.8022 73.0798 84.2154 72.6782 82.8164 71.8751C81.4239 71.072 80.3229 69.9094 79.5133 68.3874C78.7102 66.8654 78.3086 65.0227 78.3086 62.8595C78.3086 60.6898 78.7166 58.8439 79.5327 57.3219C80.3488 55.7998 81.4563 54.6405 82.8553 53.8438C84.2543 53.0407 85.8281 52.6392 87.5768 52.6392C88.7297 52.6392 89.7984 52.8011 90.7828 53.1249C91.7738 53.4488 92.6514 53.9216 93.4156 54.5433C94.1799 55.1586 94.8017 55.9132 95.2809 56.807C95.7667 57.7007 96.0776 58.7241 96.2136 59.8769Z" fill="#2A8053"/>
<path d="M75.5418 62.8595C75.5418 65.0292 75.1306 66.8751 74.308 68.3971C73.4919 69.9191 72.3779 71.0817 70.966 71.8848C69.5606 72.6815 67.9802 73.0798 66.225 73.0798C64.4569 73.0798 62.8701 72.6782 61.4646 71.8751C60.0591 71.072 58.9484 69.9094 58.1323 68.3874C57.3162 66.8654 56.9082 65.0227 56.9082 62.8595C56.9082 60.6898 57.3162 58.8439 58.1323 57.3219C58.9484 55.7998 60.0591 54.6405 61.4646 53.8438C62.8701 53.0407 64.4569 52.6392 66.225 52.6392C67.9802 52.6392 69.5606 53.0407 70.966 53.8438C72.3779 54.6405 73.4919 55.7998 74.308 57.3219C75.1306 58.8439 75.5418 60.6898 75.5418 62.8595ZM71.2769 62.8595C71.2769 61.454 71.0664 60.2688 70.6454 59.3037C70.2309 58.3387 69.6448 57.6068 68.887 57.1081C68.1292 56.6094 67.2419 56.3601 66.225 56.3601C65.2082 56.3601 64.3209 56.6094 63.5631 57.1081C62.8053 57.6068 62.2159 58.3387 61.7949 59.3037C61.3804 60.2688 61.1732 61.454 61.1732 62.8595C61.1732 64.2649 61.3804 65.4502 61.7949 66.4152C62.2159 67.3803 62.8053 68.1121 63.5631 68.6108C64.3209 69.1096 65.2082 69.3589 66.225 69.3589C67.2419 69.3589 68.1292 69.1096 68.887 68.6108C69.6448 68.1121 70.2309 67.3803 70.6454 66.4152C71.0664 65.4502 71.2769 64.2649 71.2769 62.8595Z" fill="#2A8053"/>
<path d="M54.2429 59.8769H49.9877C49.9099 59.3264 49.7513 58.8374 49.5116 58.41C49.272 57.976 48.9643 57.6068 48.5887 57.3024C48.213 56.998 47.7791 56.7649 47.2868 56.6029C46.8011 56.441 46.2732 56.3601 45.7033 56.3601C44.6735 56.3601 43.7764 56.6159 43.0122 57.1276C42.2479 57.6327 41.6553 58.3711 41.2343 59.3426C40.8133 60.3076 40.6028 61.4799 40.6028 62.8595C40.6028 64.2779 40.8133 65.4696 41.2343 66.4347C41.6618 67.3997 42.2576 68.1283 43.0219 68.6206C43.7862 69.1128 44.6702 69.3589 45.6741 69.3589C46.2376 69.3589 46.759 69.2844 47.2383 69.1355C47.724 68.9865 48.1547 68.7695 48.5304 68.4845C48.906 68.1931 49.2169 67.8401 49.463 67.4256C49.7156 67.0111 49.8905 66.5383 49.9877 66.0072L54.2429 66.0266C54.1328 66.9398 53.8575 67.8207 53.4171 68.6691C52.9832 69.5111 52.397 70.2657 51.6587 70.9328C50.9268 71.5934 50.0524 72.118 49.0356 72.5066C48.0252 72.8887 46.8821 73.0798 45.6061 73.0798C43.8315 73.0798 42.2447 72.6782 40.8457 71.8751C39.4532 71.072 38.3522 69.9094 37.5426 68.3874C36.7395 66.8654 36.3379 65.0227 36.3379 62.8595C36.3379 60.6898 36.7459 58.8439 37.562 57.3219C38.3781 55.7998 39.4856 54.6405 40.8846 53.8438C42.2836 53.0407 43.8574 52.6392 45.6061 52.6392C46.759 52.6392 47.8277 52.8011 48.8121 53.1249C49.8031 53.4488 50.6807 53.9216 51.4449 54.5433C52.2092 55.1586 52.831 55.9132 53.3102 56.807C53.796 57.7007 54.1069 58.7241 54.2429 59.8769Z" fill="#2A8053"/>
<path d="M180.957 46.9689V27.0723H194.364V30.5406H185.164V35.2816H193.674V38.7499H185.164V43.5006H194.403V46.9689H180.957Z" fill="#2A8053"/>
<path d="M164.087 27.0723L168.896 42.189H169.081L173.899 27.0723H178.563L171.704 46.9689H166.283L159.414 27.0723H164.087Z" fill="#2A8053"/>
<path d="M157.033 27.0723V46.9689H152.826V27.0723H157.033Z" fill="#2A8053"/>
<path d="M133.793 30.5406V27.0723H150.134V30.5406H144.042V46.9689H139.884V30.5406H133.793Z" fill="#2A8053"/>
<path d="M119.947 46.9689H115.439L122.308 27.0723H127.729L134.588 46.9689H130.08L125.096 31.619H124.941L119.947 46.9689ZM119.666 39.1482H130.313V42.4319H119.666V39.1482Z" fill="#2A8053"/>
<path d="M98.5645 46.9689V27.0723H106.414C107.917 27.0723 109.199 27.3411 110.261 27.8786C111.33 28.4097 112.143 29.1643 112.7 30.1423C113.263 31.1138 113.545 32.2569 113.545 33.5717C113.545 34.893 113.26 36.0296 112.69 36.9817C112.12 37.9273 111.295 38.6527 110.213 39.1579C109.138 39.6631 107.836 39.9157 106.307 39.9157H101.052V36.5348H105.627C106.43 36.5348 107.098 36.4247 107.629 36.2045C108.16 35.9843 108.555 35.654 108.814 35.2136C109.079 34.7731 109.212 34.2258 109.212 33.5717C109.212 32.9111 109.079 32.3541 108.814 31.9007C108.555 31.4473 108.157 31.104 107.619 30.8709C107.088 30.6312 106.418 30.5114 105.608 30.5114H102.771V46.9689H98.5645ZM109.309 37.9144L114.254 46.9689H109.611L104.772 37.9144H109.309Z" fill="#2A8053"/>
<path d="M81.8105 46.9689V27.0723H95.2174V30.5406H86.0172V35.2816H94.5277V38.7499H86.0172V43.5006H95.2563V46.9689H81.8105Z" fill="#2A8053"/>
<path d="M64.0977 46.9689V27.0723H71.9475C73.4566 27.0723 74.7422 27.3605 75.8044 27.9369C76.8666 28.5069 77.6762 29.3003 78.2332 30.3171C78.7967 31.3275 79.0784 32.4933 79.0784 33.8146C79.0784 35.1358 78.7934 36.3016 78.2235 37.312C77.6535 38.3224 76.8277 39.1093 75.7461 39.6728C74.671 40.2363 73.3691 40.518 71.8406 40.518H66.8373V37.1469H71.1606C71.9702 37.1469 72.6373 37.0076 73.1619 36.7291C73.693 36.4441 74.0881 36.0523 74.3471 35.5536C74.6127 35.0484 74.7455 34.4687 74.7455 33.8146C74.7455 33.1539 74.6127 32.5775 74.3471 32.0853C74.0881 31.5866 73.693 31.2012 73.1619 30.9292C72.6308 30.6507 71.9572 30.5114 71.1411 30.5114H68.3043V46.9689H64.0977Z" fill="#2A8053"/>
<path d="M60.9832 37.0206C60.9832 39.1903 60.572 41.0362 59.7494 42.5582C58.9333 44.0803 57.8193 45.2429 56.4074 46.046C55.002 46.8426 53.4216 47.2409 51.6664 47.2409C49.8983 47.2409 48.3115 46.8394 46.906 46.0363C45.5006 45.2331 44.3898 44.0706 43.5737 42.5485C42.7576 41.0265 42.3496 39.1839 42.3496 37.0206C42.3496 34.8509 42.7576 33.005 43.5737 31.483C44.3898 29.9609 45.5006 28.8016 46.906 28.005C48.3115 27.2019 49.8983 26.8003 51.6664 26.8003C53.4216 26.8003 55.002 27.2019 56.4074 28.005C57.8193 28.8016 58.9333 29.9609 59.7494 31.483C60.572 33.005 60.9832 34.8509 60.9832 37.0206ZM56.7183 37.0206C56.7183 35.6152 56.5078 34.4299 56.0868 33.4649C55.6723 32.4998 55.0862 31.768 54.3284 31.2693C53.5706 30.7705 52.6833 30.5212 51.6664 30.5212C50.6496 30.5212 49.7623 30.7705 49.0045 31.2693C48.2467 31.768 47.6573 32.4998 47.2363 33.4649C46.8218 34.4299 46.6146 35.6152 46.6146 37.0206C46.6146 38.4261 46.8218 39.6113 47.2363 40.5764C47.6573 41.5414 48.2467 42.2733 49.0045 42.772C49.7623 43.2707 50.6496 43.52 51.6664 43.52C52.6833 43.52 53.5706 43.2707 54.3284 42.772C55.0862 42.2733 55.6723 41.5414 56.0868 40.5764C56.5078 39.6113 56.7183 38.4261 56.7183 37.0206Z" fill="#2A8053"/>
<path d="M39.5829 37.0206C39.5829 39.1903 39.1716 41.0362 38.349 42.5582C37.533 44.0803 36.419 45.2429 35.007 46.046C33.6016 46.8426 32.0212 47.2409 30.266 47.2409C28.4979 47.2409 26.9111 46.8394 25.5056 46.0363C24.1002 45.2331 22.9894 44.0706 22.1733 42.5485C21.3573 41.0265 20.9492 39.1839 20.9492 37.0206C20.9492 34.8509 21.3573 33.005 22.1733 31.483C22.9894 29.9609 24.1002 28.8016 25.5056 28.005C26.9111 27.2019 28.4979 26.8003 30.266 26.8003C32.0212 26.8003 33.6016 27.2019 35.007 28.005C36.419 28.8016 37.533 29.9609 38.349 31.483C39.1716 33.005 39.5829 34.8509 39.5829 37.0206ZM35.3179 37.0206C35.3179 35.6152 35.1074 34.4299 34.6864 33.4649C34.2719 32.4998 33.6858 31.768 32.928 31.2693C32.1702 30.7705 31.2829 30.5212 30.266 30.5212C29.2492 30.5212 28.3619 30.7705 27.6041 31.2693C26.8463 31.768 26.2569 32.4998 25.8359 33.4649C25.4214 34.4299 25.2142 35.6152 25.2142 37.0206C25.2142 38.4261 25.4214 39.6113 25.8359 40.5764C26.2569 41.5414 26.8463 42.2733 27.6041 42.772C28.3619 43.2707 29.2492 43.52 30.266 43.52C31.2829 43.52 32.1702 43.2707 32.928 42.772C33.6858 42.2733 34.2719 41.5414 34.6864 40.5764C35.1074 39.6113 35.3179 38.4261 35.3179 37.0206Z" fill="#2A8053"/>
<path d="M18.282 34.0381H14.0267C13.949 33.4875 13.7903 32.9986 13.5507 32.5711C13.311 32.1371 13.0034 31.768 12.6277 31.4636C12.2521 31.1592 11.8181 30.926 11.3259 30.7641C10.8402 30.6021 10.3123 30.5212 9.74235 30.5212C8.71254 30.5212 7.81551 30.777 7.05125 31.2887C6.287 31.7939 5.69437 32.5322 5.27338 33.5037C4.85239 34.4688 4.6419 35.6411 4.6419 37.0206C4.6419 38.439 4.85239 39.6307 5.27338 40.5958C5.70085 41.5608 6.29671 42.2895 7.06097 42.7817C7.82522 43.2739 8.7093 43.52 9.7132 43.52C10.2767 43.52 10.7981 43.4456 11.2773 43.2966C11.7631 43.1476 12.1938 42.9307 12.5694 42.6457C12.9451 42.3542 13.256 42.0012 13.5021 41.5867C13.7547 41.1722 13.9296 40.6994 14.0267 40.1683L18.282 40.1878C18.1718 41.101 17.8966 41.9818 17.4562 42.8303C17.0222 43.6722 16.4361 44.4268 15.6977 45.0939C14.9658 45.7545 14.0915 46.2791 13.0746 46.6677C12.0643 47.0499 10.9211 47.2409 9.64519 47.2409C7.87056 47.2409 6.28376 46.8394 4.88478 46.0363C3.49227 45.2331 2.39123 44.0706 1.58163 42.5485C0.778512 41.0265 0.376953 39.1839 0.376953 37.0206C0.376953 34.8509 0.784989 33.005 1.60106 31.483C2.41713 29.9609 3.52466 28.8016 4.92364 28.005C6.32262 27.2019 7.89647 26.8003 9.64519 26.8003C10.7981 26.8003 11.8667 26.9622 12.8512 27.286C13.8421 27.6099 14.7197 28.0827 15.484 28.7045C16.2482 29.3198 16.87 30.0743 17.3493 30.9681C17.8351 31.8619 18.1459 32.8852 18.282 34.0381Z" fill="#2A8053"/>
<path d="M163.312 6.95713C163.234 6.17344 162.9 5.56463 162.311 5.13068C161.722 4.69674 160.922 4.47977 159.911 4.47977C159.225 4.47977 158.645 4.57692 158.172 4.77122C157.7 4.95905 157.337 5.22136 157.084 5.55815C156.838 5.89494 156.715 6.27707 156.715 6.70454C156.702 7.06076 156.777 7.37164 156.939 7.63719C157.107 7.90274 157.337 8.13266 157.628 8.32697C157.92 8.51479 158.257 8.67995 158.639 8.82244C159.021 8.95845 159.429 9.07503 159.863 9.17218L161.65 9.59965C162.518 9.79395 163.315 10.053 164.04 10.3769C164.766 10.7007 165.394 11.099 165.925 11.5718C166.456 12.0446 166.867 12.6016 167.159 13.2428C167.457 13.884 167.609 14.6191 167.615 15.4482C167.609 16.6658 167.298 17.7215 166.683 18.6153C166.074 19.5026 165.193 20.1924 164.04 20.6846C162.894 21.1704 161.511 21.4133 159.892 21.4133C158.286 21.4133 156.887 21.1671 155.695 20.6749C154.51 20.1827 153.584 19.454 152.916 18.489C152.256 17.5175 151.909 16.316 151.877 14.8847H155.948C155.993 15.5518 156.184 16.1088 156.521 16.5557C156.864 16.9961 157.321 17.3297 157.891 17.5563C158.467 17.7766 159.118 17.8867 159.843 17.8867C160.556 17.8867 161.174 17.783 161.699 17.5758C162.23 17.3685 162.641 17.0803 162.933 16.7111C163.224 16.342 163.37 15.9177 163.37 15.4384C163.37 14.9915 163.237 14.6159 162.972 14.3115C162.713 14.0071 162.33 13.748 161.825 13.5343C161.327 13.3205 160.714 13.1262 159.989 12.9514L157.823 12.4073C156.145 11.9993 154.821 11.3613 153.849 10.4934C152.878 9.62556 152.395 8.4565 152.402 6.98628C152.395 5.7816 152.716 4.72913 153.363 3.82886C154.018 2.92859 154.915 2.22586 156.054 1.72067C157.194 1.21548 158.49 0.962891 159.941 0.962891C161.417 0.962891 162.706 1.21548 163.807 1.72067C164.915 2.22586 165.776 2.92859 166.391 3.82886C167.007 4.72913 167.324 5.77188 167.343 6.95713H163.312Z" fill="#2A8053"/>
<path d="M149.056 1.23486V21.1315H144.85V1.23486H149.056Z" fill="#2A8053"/>
<path d="M125.816 4.70317V1.23486H142.157V4.70317H136.066V21.1315H131.908V4.70317H125.816Z" fill="#2A8053"/>
<path d="M124.366 11.1832C124.366 13.3529 123.955 15.1988 123.132 16.7208C122.316 18.2429 121.202 19.4055 119.79 20.2086C118.385 21.0052 116.804 21.4035 115.049 21.4035C113.281 21.4035 111.694 21.002 110.289 20.1989C108.883 19.3957 107.773 18.2332 106.957 16.7111C106.14 15.1891 105.732 13.3465 105.732 11.1832C105.732 9.0135 106.14 7.16763 106.957 5.64559C107.773 4.12355 108.883 2.96421 110.289 2.16757C111.694 1.36445 113.281 0.962891 115.049 0.962891C116.804 0.962891 118.385 1.36445 119.79 2.16757C121.202 2.96421 122.316 4.12355 123.132 5.64559C123.955 7.16763 124.366 9.0135 124.366 11.1832ZM120.101 11.1832C120.101 9.77776 119.891 8.59251 119.47 7.62748C119.055 6.66244 118.469 5.93057 117.711 5.43186C116.953 4.93314 116.066 4.68379 115.049 4.68379C114.032 4.68379 113.145 4.93314 112.387 5.43186C111.63 5.93057 111.04 6.66244 110.619 7.62748C110.205 8.59251 109.997 9.77776 109.997 11.1832C109.997 12.5887 110.205 13.7739 110.619 14.739C111.04 15.704 111.63 16.4359 112.387 16.9346C113.145 17.4333 114.032 17.6826 115.049 17.6826C116.066 17.6826 116.953 17.4333 117.711 16.9346C118.469 16.4359 119.055 15.704 119.47 14.739C119.891 13.7739 120.101 12.5887 120.101 11.1832Z" fill="#2A8053"/>
<path d="M88.1289 21.1315V1.23486H95.9787C97.4813 1.23486 98.7637 1.50365 99.8259 2.04122C100.895 2.57231 101.707 3.32686 102.264 4.30485C102.828 5.27636 103.11 6.41951 103.11 7.73429C103.11 9.05555 102.825 10.1922 102.255 11.1443C101.685 12.0899 100.859 12.8153 99.7774 13.3205C98.7022 13.8257 97.4004 14.0783 95.8719 14.0783H90.616V10.6974H95.1918C95.9949 10.6974 96.662 10.5873 97.1931 10.3671C97.7242 10.1469 98.1193 9.81657 98.3784 9.37615C98.6439 8.93573 98.7767 8.38844 98.7767 7.73429C98.7767 7.07366 98.6439 6.51666 98.3784 6.06329C98.1193 5.60991 97.721 5.26664 97.1834 5.03348C96.6523 4.79384 95.982 4.67402 95.1724 4.67402H92.3356V21.1315H88.1289ZM98.8739 12.077L103.819 21.1315H99.175L94.3369 12.077H98.8739Z" fill="#2A8053"/>
<path d="M85.0145 11.1832C85.0145 13.3529 84.6032 15.1988 83.7807 16.7208C82.9646 18.2429 81.8506 19.4055 80.4387 20.2086C79.0332 21.0052 77.4529 21.4035 75.6977 21.4035C73.9295 21.4035 72.3427 21.002 70.9373 20.1989C69.5318 19.3957 68.421 18.2332 67.605 16.7111C66.7889 15.1891 66.3809 13.3465 66.3809 11.1832C66.3809 9.0135 66.7889 7.16763 67.605 5.64559C68.421 4.12355 69.5318 2.96421 70.9373 2.16757C72.3427 1.36445 73.9295 0.962891 75.6977 0.962891C77.4529 0.962891 79.0332 1.36445 80.4387 2.16757C81.8506 2.96421 82.9646 4.12355 83.7807 5.64559C84.6032 7.16763 85.0145 9.0135 85.0145 11.1832ZM80.7496 11.1832C80.7496 9.77776 80.5391 8.59251 80.1181 7.62748C79.7036 6.66244 79.1174 5.93057 78.3596 5.43186C77.6018 4.93314 76.7145 4.68379 75.6977 4.68379C74.6808 4.68379 73.7935 4.93314 73.0357 5.43186C72.2779 5.93057 71.6886 6.66244 71.2676 7.62748C70.8531 8.59251 70.6458 9.77776 70.6458 11.1832C70.6458 12.5887 70.8531 13.7739 71.2676 14.739C71.6886 15.704 72.2779 16.4359 73.0357 16.9346C73.7935 17.4333 74.6808 17.6826 75.6977 17.6826C76.7145 17.6826 77.6018 17.4333 78.3596 16.9346C79.1174 16.4359 79.7036 15.704 80.1181 14.739C80.5391 13.7739 80.7496 12.5887 80.7496 11.1832Z" fill="#2A8053"/>
<path d="M46.9434 1.23486H51.6552L56.1922 9.80361H56.3865L60.9234 1.23486H65.6353L58.3781 14.0977V21.1315H54.2006V14.0977L46.9434 1.23486Z" fill="#2A8053"/>
<path d="M44.6323 1.23486V21.1315H40.9988L32.3426 8.60865H32.1969V21.1315H27.9902V1.23486H31.682L40.2702 13.748H40.445V1.23486H44.6323Z" fill="#2A8053"/>
</svg>
