<svg width="64" height="64" viewBox="0 0 64 64" fill="none" xmlns="http://www.w3.org/2000/svg">
<g clip-path="url(#clip0_462_111)">
<path d="M47.9375 2H16.0625C8.296 2 2 8.296 2 16.0625V47.9375C2 55.704 8.296 62 16.0625 62H47.9375C55.704 62 62 55.704 62 47.9375V16.0625C62 8.296 55.704 2 47.9375 2Z" fill="url(#paint0_radial_462_111)"/>
<path d="M47.9375 2H16.0625C8.296 2 2 8.296 2 16.0625V47.9375C2 55.704 8.296 62 16.0625 62H47.9375C55.704 62 62 55.704 62 47.9375V16.0625C62 8.296 55.704 2 47.9375 2Z" fill="url(#paint1_radial_462_111)"/>
<path d="M32.0021 8.5625C25.637 8.5625 24.838 8.59039 22.3381 8.70406C19.843 8.81844 18.1398 9.21336 16.6496 9.79297C15.1079 10.3916 13.8003 11.1924 12.4977 12.4955C11.1938 13.7984 10.393 15.106 9.7925 16.647C9.21125 18.1377 8.81586 19.8416 8.70359 22.3355C8.5918 24.8356 8.5625 25.6348 8.5625 32.0002C8.5625 38.3656 8.59063 39.162 8.70406 41.6619C8.81891 44.157 9.21383 45.8602 9.79297 47.3504C10.392 48.8921 11.1929 50.1997 12.496 51.5023C13.7984 52.8062 15.106 53.6089 16.6466 54.2075C18.1379 54.7871 19.8413 55.182 22.336 55.2964C24.8361 55.4101 25.6344 55.438 31.9993 55.438C38.3652 55.438 39.1616 55.4101 41.6614 55.2964C44.1566 55.182 45.8616 54.7871 47.353 54.2075C48.894 53.6089 50.1997 52.8062 51.5019 51.5023C52.8057 50.1997 53.6063 48.8921 54.207 47.3511C54.7831 45.8602 55.1787 44.1566 55.2959 41.6623C55.4082 39.1625 55.4375 38.3656 55.4375 32.0002C55.4375 25.6348 55.4082 24.8361 55.2959 22.336C55.1787 19.8409 54.7831 18.1379 54.207 16.6477C53.6063 15.106 52.8057 13.7984 51.5019 12.4955C50.1983 11.192 48.8945 10.3911 47.3516 9.7932C45.8574 9.21336 44.1533 8.8182 41.6581 8.70406C39.158 8.59039 38.3621 8.5625 31.9948 8.5625H32.0021ZM29.8995 12.7862C30.5237 12.7852 31.22 12.7862 32.0021 12.7862C38.2602 12.7862 39.0017 12.8087 41.473 12.9209C43.7581 13.0255 44.9984 13.4073 45.8246 13.7281C46.9184 14.1528 47.6982 14.6607 48.518 15.4813C49.3384 16.3016 49.846 17.0827 50.2719 18.1766C50.5927 19.0016 50.975 20.2419 51.0791 22.527C51.1913 24.9978 51.2157 25.7398 51.2157 31.9948C51.2157 38.2498 51.1913 38.9921 51.0791 41.4627C50.9745 43.7478 50.5927 44.9881 50.2719 45.8134C49.8472 46.9072 49.3384 47.686 48.518 48.5059C47.6977 49.3262 46.9189 49.8338 45.8246 50.2588C44.9994 50.581 43.7581 50.9619 41.473 51.0664C39.0022 51.1787 38.2602 51.203 32.0021 51.203C25.7438 51.203 25.002 51.1787 22.5315 51.0664C20.2463 50.9609 19.006 50.5791 18.1791 50.2583C17.0855 49.8334 16.3041 49.3257 15.4838 48.5054C14.6635 47.6851 14.1559 46.9058 13.73 45.8115C13.4091 44.9863 13.0269 43.7459 12.9228 41.4608C12.8105 38.99 12.788 38.248 12.788 31.989C12.788 25.7302 12.8105 24.992 12.9228 22.5212C13.0273 20.236 13.4091 18.9957 13.73 18.1695C14.1549 17.0757 14.6635 16.2945 15.4841 15.4742C16.3044 14.6539 17.0855 14.146 18.1794 13.7204C19.0055 13.3981 20.2463 13.0173 22.5315 12.9123C24.6936 12.8145 25.5315 12.7852 29.8995 12.7803V12.7862ZM44.513 16.6777C42.9603 16.6777 41.7005 17.9363 41.7005 19.4893C41.7005 21.042 42.9603 22.3018 44.513 22.3018C46.0658 22.3018 47.3255 21.042 47.3255 19.4893C47.3255 17.9366 46.0658 16.6768 44.513 16.6768V16.6777ZM32.0021 19.9639C25.3552 19.9639 19.966 25.3531 19.966 32.0002C19.966 38.6473 25.3552 44.034 32.0021 44.034C38.6492 44.034 44.0366 38.6473 44.0366 32.0002C44.0366 25.3534 38.6488 19.9639 32.0016 19.9639H32.0021ZM32.0021 24.1876C36.3167 24.1876 39.8148 27.6852 39.8148 32.0002C39.8148 36.3148 36.3167 39.8129 32.0021 39.8129C27.6873 39.8129 24.1897 36.3148 24.1897 32.0002C24.1897 27.6852 27.6873 24.1876 32.0021 24.1876Z" fill="white"/>
</g>
<rect x="1" y="1" width="62" height="62" rx="15" stroke="white" stroke-width="2"/>
<defs>
<radialGradient id="paint0_radial_462_111" cx="0" cy="0" r="1" gradientUnits="userSpaceOnUse" gradientTransform="translate(17.9375 66.6212) rotate(-90) scale(59.4645 55.3066)">
<stop stop-color="#FFDD55"/>
<stop offset="0.1" stop-color="#FFDD55"/>
<stop offset="0.5" stop-color="#FF543E"/>
<stop offset="1" stop-color="#C837AB"/>
</radialGradient>
<radialGradient id="paint1_radial_462_111" cx="0" cy="0" r="1" gradientUnits="userSpaceOnUse" gradientTransform="translate(-8.05023 6.32211) rotate(78.681) scale(26.5809 109.567)">
<stop stop-color="#3771C8"/>
<stop offset="0.128" stop-color="#3771C8"/>
<stop offset="1" stop-color="#6600FF" stop-opacity="0"/>
</radialGradient>
<clipPath id="clip0_462_111">
<rect x="2" y="2" width="60" height="60" rx="14" fill="white"/>
</clipPath>
</defs>
</svg>
