<svg width="64" height="64" viewBox="0 0 64 64" fill="none" xmlns="http://www.w3.org/2000/svg">
<rect x="1" y="1" width="62" height="62" rx="31" stroke="white" stroke-width="2"/>
<path d="M62 32C62 15.4316 48.5684 2 32 2C15.4316 2 2 15.4316 2 32C2 46.9738 12.9706 59.3851 27.3125 61.6356V40.6719H19.6953V32H27.3125V25.3906C27.3125 17.8719 31.7914 13.7188 38.6441 13.7188C41.9263 13.7188 45.3594 14.3047 45.3594 14.3047V21.6875H41.5766C37.8498 21.6875 36.6875 24.0001 36.6875 26.3727V32H45.0078L43.6777 40.6719H36.6875V61.6356C51.0294 59.3851 62 46.974 62 32Z" fill="#1877F2"/>
<path d="M43.6777 40.6719L45.0078 32H36.6875V26.3727C36.6875 23.9998 37.8498 21.6875 41.5766 21.6875H45.3594V14.3047C45.3594 14.3047 41.9263 13.7188 38.6438 13.7188C31.7914 13.7188 27.3125 17.8719 27.3125 25.3906V32H19.6953V40.6719H27.3125V61.6355C28.8632 61.8786 30.4304 62.0004 32 62C33.5696 62.0005 35.1368 61.8786 36.6875 61.6355V40.6719H43.6777Z" fill="white"/>
</svg>
