<svg width="22" height="20" viewBox="0 0 22 20" fill="none" xmlns="http://www.w3.org/2000/svg">
<path d="M11.8662 0.996161C11.4808 0.33201 10.5217 0.332008 10.1363 0.996161L7.42229 5.67347C7.23192 6.00155 6.90287 6.22544 6.52781 6.28209L1.44149 7.05032C0.587212 7.17935 0.287552 8.25796 0.952857 8.80916L4.74195 11.9484C5.09269 12.239 5.25761 12.6973 5.17241 13.1448L4.18124 18.3499C4.02456 19.1727 4.88834 19.812 5.62949 19.4218L10.4189 16.9C10.7834 16.708 11.2191 16.708 11.5837 16.9L16.3731 19.4218C17.1142 19.812 17.978 19.1727 17.8213 18.3499L16.8302 13.1448C16.745 12.6973 16.9099 12.239 17.2606 11.9484L21.0497 8.80916C21.715 8.25796 21.4154 7.17935 20.5611 7.05032L15.4748 6.28209C15.0997 6.22544 14.7706 6.00155 14.5803 5.67347L11.8662 0.996161Z" fill="#FF8800"/>
</svg>
