<svg width="90" height="64" viewBox="0 0 90 64" fill="none" xmlns="http://www.w3.org/2000/svg">
<g clip-path="url(#clip0_462_116)">
<path d="M85.5673 11.3583C85.0771 9.54952 84.121 7.90048 82.7941 6.57543C81.4672 5.25037 79.8159 4.29554 78.0045 3.806C71.3731 2 44.6839 2 44.6839 2C44.6839 2 17.9934 2.05467 11.362 3.86067C9.55061 4.35023 7.89924 5.30512 6.57236 6.63023C5.24548 7.95535 4.28938 9.60446 3.79928 11.4133C1.79344 23.1793 1.01533 41.108 3.85436 52.4033C4.34451 54.2121 5.30063 55.8612 6.62751 57.1862C7.95439 58.5113 9.60573 59.4661 11.4171 59.9557C18.0485 61.7617 44.7384 61.7617 44.7384 61.7617C44.7384 61.7617 71.4279 61.7617 78.0589 59.9557C79.8704 59.4662 81.5218 58.5114 82.8487 57.1863C84.1757 55.8612 85.1318 54.2122 85.622 52.4033C87.7377 40.6207 88.3896 22.703 85.5673 11.3583Z" fill="#FF0000"/>
<path d="M36.1875 44.6866L58.3282 31.8806L36.1875 19.0746V44.6866Z" fill="white"/>
</g>
<rect x="1" y="1" width="87.4545" height="62" rx="15" stroke="white" stroke-width="2"/>
<defs>
<clipPath id="clip0_462_116">
<rect x="2" y="2" width="85.4545" height="60" rx="14" fill="white"/>
</clipPath>
</defs>
</svg>
